# xmcd
#
# Track frame offsets:
#	150
#	56422
#	101151
#	122100
#	149509
#	186587
#	220460
#	246738
#
# Disc length: 3875 seconds
# Revision: 0
# Processed by: cddbd v1.5.2PL0 Copyright (c) Steve Scherf et al.
# Submitted via: dBpowerAMP V12.0
#
DISCID=890f2108
DTITLE=BLUES HAMMER - Set One
DYEAR=2010
DGENRE=Blues
TTITLE0=Peter Gunn - Checkin' On My Baby
TTITLE1=Nightlife
TTITLE2=Don't Blame Me Baby
TTITLE3=Walk On Baby
TTITLE4=Best Of Friends
TTITLE5=I'll Play The Blues For You
TTITLE6=Kidney Stu
TTITLE7=Sweet Little Angel
EXTD=
EXTT0=
EXTT1=
EXTT2=
EXTT3=
EXTT4=
EXTT5=
EXTT6=
EXTT7=
PLAYORDER=
